<?xml version="1.0" encoding="UTF-8" standalone="no"?>
<!-- Created with Inkscape (http://www.inkscape.org/) -->

<svg
   xmlns:dc="http://purl.org/dc/elements/1.1/"
   xmlns:cc="http://creativecommons.org/ns#"
   xmlns:rdf="http://www.w3.org/1999/02/22-rdf-syntax-ns#"
   xmlns:svg="http://www.w3.org/2000/svg"
   xmlns="http://www.w3.org/2000/svg"
   xmlns:sodipodi="http://sodipodi.sourceforge.net/DTD/sodipodi-0.dtd"
   xmlns:inkscape="http://www.inkscape.org/namespaces/inkscape"
   id="svg2"
   version="1.1"
   inkscape:version="0.48.5 r10040"
   width="990"
   height="765"
   xml:space="preserve"
   sodipodi:docname="dita_logo.ai"><metadata
     id="metadata8"><rdf:RDF><cc:Work
         rdf:about=""><dc:format>image/svg+xml</dc:format><dc:type
           rdf:resource="http://purl.org/dc/dcmitype/StillImage" /><dc:title></dc:title></cc:Work></rdf:RDF></metadata><defs
     id="defs6"><clipPath
       clipPathUnits="userSpaceOnUse"
       id="clipPath16"><path
         d="M 0,612 792,612 792,0 0,0 0,612 z"
         id="path18" /></clipPath><clipPath
       clipPathUnits="userSpaceOnUse"
       id="clipPath46"><path
         d="m 380.36,565.329 117.32,0 0,-53.619 -117.32,0 0,53.619 z"
         id="path48" /></clipPath><clipPath
       clipPathUnits="userSpaceOnUse"
       id="clipPath78"><path
         d="m 361.777,549.955 37.002,0 0,-55.433 -37.002,0 0,55.433 z"
         id="path80" /></clipPath></defs><sodipodi:namedview
     pagecolor="#ffffff"
     bordercolor="#666666"
     borderopacity="1"
     objecttolerance="10"
     gridtolerance="10"
     guidetolerance="10"
     inkscape:pageopacity="0"
     inkscape:pageshadow="2"
     inkscape:window-width="640"
     inkscape:window-height="480"
     id="namedview4"
     showgrid="false"
     inkscape:zoom="0.30849673"
     inkscape:cx="495"
     inkscape:cy="382.5"
     inkscape:window-x="0"
     inkscape:window-y="0"
     inkscape:window-maximized="0"
     inkscape:current-layer="g10" /><g
     id="g10"
     inkscape:groupmode="layer"
     inkscape:label="dita_logo"
     transform="matrix(1.25,0,0,-1.25,0,765)"><g
       id="g12"><g
         id="g14"
         clip-path="url(#clipPath16)"><g
           id="g20"
           transform="translate(267.5986,498.563)"><path
             d="m 0,0 22.01,-12.198 c 1.104,-0.619 1.84,-1.172 2.204,-1.657 0.364,-0.487 0.547,-1.106 0.547,-1.857 0,-0.95 -0.343,-1.773 -1.029,-2.469 -0.684,-0.697 -1.48,-1.045 -2.385,-1.045 -0.597,0 -1.492,0.332 -2.685,0.995 L -14.121,0 18.662,18.231 c 1.193,0.641 2.076,0.961 2.651,0.961 0.929,0 1.735,-0.342 2.419,-1.027 0.686,-0.686 1.029,-1.504 1.029,-2.453 0,-0.752 -0.183,-1.371 -0.547,-1.857 -0.364,-0.486 -1.1,-1.038 -2.204,-1.657 L 0,0 z"
             style="fill:#000000;fill-opacity:1;fill-rule:nonzero;stroke:none"
             id="path22" /></g><g
           id="g24"
           transform="translate(324.2471,493.3589)"><path
             d="m 0,0 c 0,2.807 -0.984,5.182 -2.95,7.127 -1.968,1.944 -4.376,2.917 -7.227,2.917 -2.829,0 -5.225,-0.973 -7.192,-2.917 C -19.336,5.182 -20.32,2.84 -20.32,0.1 c 0,-2.498 0.884,-4.547 2.652,-6.149 1.768,-1.603 4.265,-2.404 7.491,-2.404 3.204,0 5.702,0.801 7.491,2.404 C -0.896,-4.447 0,-2.432 0,0 m 6.795,28.838 0,-36.196 1.16,0 c 1.613,0 2.774,-0.316 3.481,-0.945 0.707,-0.631 1.06,-1.454 1.06,-2.47 0,-0.995 -0.348,-1.806 -1.044,-2.436 -0.696,-0.63 -1.862,-0.945 -3.497,-0.945 l -7.955,0 0,1.658 c -1.547,-0.906 -3.166,-1.592 -4.856,-2.056 -1.691,-0.464 -3.443,-0.696 -5.254,-0.696 -5.105,0 -9.215,1.476 -12.331,4.426 -3.116,2.949 -4.674,6.623 -4.674,11.021 0,4.596 1.636,8.519 4.906,11.768 3.27,3.248 7.26,4.872 11.967,4.872 1.767,0 3.502,-0.271 5.203,-0.812 C -3.338,15.484 -1.658,14.673 0,13.59 l 0,8.453 -1.16,0 c -1.636,0 -2.801,0.314 -3.498,0.945 -0.696,0.629 -1.043,1.442 -1.043,2.436 0,1.016 0.347,1.84 1.043,2.47 0.697,0.629 1.862,0.944 3.498,0.944 l 7.955,0 z"
             style="fill:#000000;fill-opacity:1;fill-rule:nonzero;stroke:none"
             id="path26" /></g><path
           d="m 358.62,515.004 -8.088,0 0,7.192 8.088,0 0,-7.192 z m 0.929,-5.702 0,-23.302 8.154,0 c 1.636,0 2.801,-0.315 3.497,-0.944 0.696,-0.631 1.044,-1.454 1.044,-2.471 0,-0.994 -0.348,-1.805 -1.044,-2.435 -0.696,-0.63 -1.861,-0.945 -3.497,-0.945 l -23.103,0 c -1.636,0 -2.802,0.315 -3.497,0.945 -0.697,0.63 -1.045,1.453 -1.045,2.469 0,0.995 0.348,1.806 1.045,2.437 0.695,0.629 1.861,0.944 3.497,0.944 l 8.154,0 0,16.507 -5.47,0 c -1.613,0 -2.773,0.316 -3.48,0.946 -0.707,0.629 -1.061,1.453 -1.061,2.468 0,0.995 0.348,1.807 1.045,2.437 0.695,0.63 1.861,0.944 3.496,0.944 l 12.265,0 z"
           style="fill:#000000;fill-opacity:1;fill-rule:nonzero;stroke:none"
           id="path28" /><g
           id="g30"
           transform="translate(430.0635,491.3687)"><path
             d="m 0,0 c -2.719,0.529 -5.227,0.795 -7.525,0.795 -2.762,0 -5.137,-0.674 -7.125,-2.022 -1.239,-0.862 -1.858,-1.735 -1.858,-2.619 0,-0.64 0.299,-1.16 0.895,-1.557 1.105,-0.73 2.619,-1.095 4.541,-1.095 1.636,0 3.486,0.32 5.552,0.962 2.067,0.64 3.907,1.514 5.52,2.618 L 0,0 z m 0,-12.166 0,1.592 c -1.701,-0.906 -3.58,-1.586 -5.635,-2.039 -2.054,-0.453 -3.924,-0.68 -5.601,-0.68 -3.647,0 -6.61,0.967 -8.885,2.9 -2.275,1.934 -3.414,4.073 -3.414,6.414 0,2.852 1.453,5.498 4.359,7.94 2.906,2.441 6.922,3.662 12.049,3.662 2.055,0 4.43,-0.221 7.127,-0.662 l 0,1.623 c 0,1.018 -0.438,1.846 -1.309,2.486 -0.875,0.641 -2.537,0.962 -4.99,0.962 -2.01,0 -4.619,-0.397 -7.822,-1.193 -1.193,-0.288 -2.121,-0.431 -2.785,-0.431 -0.907,0 -1.674,0.325 -2.303,0.978 -0.629,0.651 -0.945,1.485 -0.945,2.503 0,0.574 0.111,1.071 0.332,1.491 0.22,0.419 0.531,0.757 0.927,1.011 0.399,0.254 1.227,0.558 2.487,0.912 1.679,0.464 3.392,0.834 5.138,1.11 1.745,0.276 3.325,0.414 4.741,0.414 4.218,0 7.496,-0.911 9.828,-2.734 2.33,-1.823 3.496,-4.316 3.496,-7.476 l 0,-13.987 1.16,0 c 1.635,0 2.801,-0.316 3.498,-0.944 0.695,-0.631 1.043,-1.455 1.043,-2.471 0,-0.994 -0.348,-1.806 -1.043,-2.436 -0.697,-0.63 -1.863,-0.945 -3.498,-0.945 l -7.955,0 z"
             style="fill:#000000;fill-opacity:1;fill-rule:nonzero;stroke:none"
             id="path32" /></g><g
           id="g34"
           transform="translate(471.8623,498.561)"><path
             d="m 0,0 -22.01,12.198 c -1.105,0.619 -1.84,1.171 -2.205,1.657 -0.363,0.486 -0.547,1.105 -0.547,1.857 0,0.949 0.344,1.767 1.028,2.453 0.685,0.685 1.492,1.027 2.42,1.027 0.574,0 1.459,-0.32 2.652,-0.961 L 14.121,0 -18.662,-18.231 c -1.193,-0.663 -2.078,-0.995 -2.652,-0.995 -0.928,0 -1.735,0.343 -2.42,1.028 -0.684,0.685 -1.028,1.513 -1.028,2.486 0,0.751 0.184,1.37 0.547,1.857 0.365,0.485 1.1,1.038 2.205,1.657 L 0,0 z"
             style="fill:#000000;fill-opacity:1;fill-rule:nonzero;stroke:none"
             id="path36" /></g><g
           id="g38"
           transform="translate(424.8584,510.1265)"><path
             d="m 0,0 c 3.932,2.878 8.168,2.398 13.957,3.338 2.141,1.859 1.801,6.199 5,7 16.93,6.74 26.781,20.56 42,29 8.631,0.701 16.67,2 18,10 -27.629,-3.48 -51.76,6.31 -80,4 -14.76,10.161 -43.472,4.307 -47.09,-17.884 l 15.031,-0.95 c 3.639,-3.096 4.889,-2.816 9.039,-7.225 1.7,-1.8 3.141,-7.509 7.721,-10.509 4.42,-2.581 12.235,-2.53 16.34,-5.807 C -5.49,5.84 -18.512,0.148 -16.043,-9.662 c 0,0 0.57,-0.151 0.65,0.01 0.08,0.16 -0.037,7.083 9.002,8.949 C -4.545,-0.321 0,0 0,0"
             style="fill:#000000;fill-opacity:1;fill-rule:nonzero;stroke:none"
             id="path40" /></g><g
           id="g42"><g
             id="g44" /><g
             id="g50"><g
               clip-path="url(#clipPath46)"
               id="g52"><g
                 transform="translate(479,555)"
                 id="g54"><path
                   d="M 0,0 C 5.029,0.97 12.569,1.05 18.68,0.94 18.409,-0.77 11.54,-1.15 9.68,-1.73 -10.58,-8.03 -19.431,-25.29 -41,-31 c -1.391,-1.28 -0.61,-4.72 -2,-6 -2.38,0.63 0.149,6.16 -2,7 -14.11,0.9 -27.25,2.75 -30,15 -3.73,1.57 -7.88,3.91 -9.99,7.1 -1.35,2.05 -0.64,3.42 -1.08,5.84 -0.34,1.83 -7.19,3.28 -4.92,6.66 11.83,9.17 21.84,5.55 31.99,1.4 -1.521,-7.48 -11.551,-5.86 -12.301,-14.12 2.481,1.64 3.46,2.81 6,4.33 4.671,2.8 10.071,6.04 13.301,9.79 17.399,-0.27 33.029,-2.3 46,-7 -14.761,-8.32 -36.391,-17.9 -54,-17 -0.42,-3.42 2.989,-3 4,-5 21.479,4.85 42.949,9.72 56,23"
                   style="fill:#ffffff;fill-opacity:1;fill-rule:nonzero;stroke:none"
                   id="path56" /></g><g
                 transform="translate(431.2197,518.7104)"
                 id="g58"><path
                   d="m 0,0 c 0.07,-4.71 -9.4,-4.29 -14,-7 4.3,6.81 8.729,4.24 14,7"
                   style="fill:#ffffff;fill-opacity:1;fill-rule:nonzero;stroke:none"
                   id="path60" /></g><g
                 transform="translate(385.9297,557.77)"
                 id="g62"><path
                   d="M 0,0 C 0.25,-1.83 -0.21,-2.49 3.83,-4.33 1.11,-5.3 -2.87,-7.25 -5.57,-8.21 -4.98,-6.13 -1.99,-1.39 0,0"
                   style="fill:#ffffff;fill-opacity:1;fill-rule:nonzero;stroke:none"
                   id="path64" /></g></g></g></g><g
           id="g66"
           transform="translate(391.1768,552.188)"><path
             d="m 0,0 c 0.609,-0.914 0.334,-4.667 0.334,-4.667 l -6.25,0.292 c 0,0 2.377,2.895 4.318,3.718"
             style="fill:#ffffff;fill-opacity:1;fill-rule:nonzero;stroke:none"
             id="path68" /></g><g
           id="g70"
           transform="translate(397.79,559.4272)"><path
             d="M 0,0 C -2.629,0.572 -5.35,0.668 -5.387,-1.91 -5.398,-2.611 -3.982,-3.305 -2.633,-3.051 -0.307,-2.611 0,0 0,0"
             style="fill:#000000;fill-opacity:1;fill-rule:nonzero;stroke:none"
             id="path72" /></g><g
           id="g74"><g
             id="g76" /><g
             id="g82"><g
               clip-path="url(#clipPath78)"
               id="g84"><g
                 transform="translate(398.7773,504.5225)"
                 id="g86"><path
                   d="m 0,0 c 0.13,-7.13 -5.78,-8.22 -11,-10 -11.69,3.31 -14.4,15.61 -13,32 -3.291,3.04 -11.021,1.65 -13,6 3.51,4.02 1.56,2.21 2,6 5.35,0.35 10.16,-0.84 13.6,-2.4 3.109,2.81 1.25,9.73 4.87,13.07 0,0 4.59,2.92 4.53,-2.67 -1.09,-2.56 -2.061,-6.61 -2,-11 3.189,-4.47 12.55,-2.78 14,-9 -4.081,-2.56 -9.041,1.26 -15,0 -2.16,-8.63 -2.13,-23.36 6,-25 3.91,-0.05 4.76,6.51 9,3"
                   style="fill:#0250a6;fill-opacity:1;fill-rule:nonzero;stroke:none"
                   id="path88" /></g></g></g></g></g></g></g></svg>